<svg width="32" height="32" viewBox="0 0 32 32" fill="none" xmlns="http://www.w3.org/2000/svg">
<rect width="32" height="32" rx="3" fill="white"/>
<path d="M5.83333 3C4.26853 3 3 4.26853 3 5.83333C3 7.39814 4.26853 8.66667 5.83333 8.66667C7.39814 8.66667 8.66667 7.39814 8.66667 5.83333C8.66667 4.26853 7.39814 3 5.83333 3Z" fill="black"/>
<path d="M3.16667 11C3.07462 11 3 11.0746 3 11.1667V28.5C3 28.592 3.07462 28.6667 3.16667 28.6667H8.5C8.59205 28.6667 8.66667 28.592 8.66667 28.5V11.1667C8.66667 11.0746 8.59205 11 8.5 11H3.16667Z" fill="black"/>
<path d="M11.8333 11C11.7413 11 11.6667 11.0746 11.6667 11.1667V28.5C11.6667 28.592 11.7413 28.6667 11.8333 28.6667H17.1667C17.2587 28.6667 17.3333 28.592 17.3333 28.5V19.1667C17.3333 18.5036 17.5967 17.8677 18.0656 17.3989C18.5344 16.9301 19.1703 16.6667 19.8333 16.6667C20.4964 16.6667 21.1323 16.9301 21.6011 17.3989C22.0699 17.8677 22.3333 18.5036 22.3333 19.1667V28.5C22.3333 28.592 22.408 28.6667 22.5 28.6667H27.8333C27.9254 28.6667 28 28.592 28 28.5V17.007C28 13.7713 25.1859 11.24 21.9665 11.5327C20.9736 11.6229 19.9919 11.8697 19.0753 12.2626L17.3333 13.0091V11.1667C17.3333 11.0746 17.2587 11 17.1667 11H11.8333Z" fill="black"/>
</svg>
